<?xml version="1.0" encoding="UTF-8"?><svg id="Layer_1" xmlns="http://www.w3.org/2000/svg" xmlns:xlink="http://www.w3.org/1999/xlink" viewBox="0 0 28.74 29"><defs><style>.cls-1{fill:#3e6dcf;}.cls-2{clip-path:url(#clippath);}.cls-3{fill:none;}</style><clipPath id="clippath"><rect class="cls-3" x=".27" width="28" height="29"/></clipPath></defs><g id="Group_200"><g class="cls-2"><g id="Group_199"><path id="Path_632" class="cls-1" d="m13.98.01h.79l.19.06c.88.26,1.46,1.09,1.41,2-.04.4-.12.8-.24,1.18-.12.53-.13.54.41.56.19,0,.28.08.27.27v.22q0,.54-.53.54t-.43.42s0,.07,0,.11c-.03.25.07.35.33.34.98-.01,1.96,0,2.95,0,1.05-.06,2.1.11,3.08.49.13.06.21.03.29-.11.3-.5.72-.5.99.01.09.16.18.2.33.1.07-.04.15-.08.23-.11.8-.37.57-.48,1.02.37.09.17.04.26-.12.33-.2.09-.4.22-.6.29-.27.1-.28.24-.17.49.88,1.89,1.74,3.79,2.61,5.69.65,1.42,1.31,2.84,1.96,4.25v.79c-.03.09-.06.18-.08.27-.38,1.49-1.71,2.53-3.25,2.54-1.62.02-3.24.02-4.85,0-1.57-.01-2.92-1.11-3.26-2.64-.12-.39-.1-.8.05-1.18.95-2.05,1.89-4.11,2.83-6.17.56-1.22,1.12-2.45,1.68-3.67.09-.19.06-.28-.14-.36-.49-.2-1-.32-1.53-.34-1.35-.02-2.69,0-4.04-.02-.25,0-.32.09-.32.33,0,5.63,0,11.26,0,16.89,0,.17.07.33.19.44.4.39.8.79,1.19,1.19.13.15.32.23.52.22.55,0,1.1-.01,1.65.03,1.17.13,2.09,1.07,2.18,2.24.04.26-.08.51-.3.65H7.47c-.22-.13-.34-.39-.3-.65.09-1.17,1.01-2.11,2.18-2.24.56-.04,1.12-.03,1.68-.03.18,0,.35-.07.47-.2.4-.41.8-.81,1.21-1.21.13-.11.2-.27.19-.44,0-5.63,0-11.26,0-16.89,0-.24-.07-.34-.32-.33-1.35.01-2.69,0-4.04.02-.54.02-1.08.15-1.58.36-.15.06-.18.14-.11.28.04.08.08.17.12.26,1.47,3.2,2.93,6.4,4.39,9.59.13.25.18.53.15.81-.18,1.74-1.65,3.05-3.39,3.05-1.58.02-3.16,0-4.74,0-.64,0-1.27-.17-1.81-.51-.82-.52-1.39-1.35-1.57-2.3v-.79c.04-.08.08-.15.12-.22,1.46-3.18,2.91-6.36,4.37-9.54.25-.55.31-.45-.26-.75-.77-.4-.72-.16-.3-1.04.07-.16.17-.17.31-.1.21.11.42.2.62.32s.3.09.41-.12c.09-.26.38-.4.64-.3.14.05.25.16.3.29.11.21.22.2.4.12.77-.31,1.6-.47,2.44-.46h3.28c.59,0,.58,0,.56-.59,0-.2-.09-.29-.29-.28h-.25c-.41,0-.42-.01-.42-.43,0-.57,0-.57.55-.6.18-.01.25-.07.2-.26-.09-.33-.17-.67-.25-1.01-.1-.37-.09-.76.02-1.13.22-.71.8-1.24,1.52-1.4M5.76,17.23h4.04c.42,0,.42,0,.25-.37-.62-1.36-1.24-2.72-1.87-4.08-.73-1.61-1.47-3.21-2.21-4.82-.05-.1-.07-.22-.22-.23s-.18.12-.23.22c-.04.07-.07.15-.11.23L1.43,16.89c-.14.3-.12.33.21.33h4.12m17.22,0h4.15c.29,0,.31-.04.2-.28-1.37-2.99-2.74-5.98-4.11-8.97-.05-.11-.08-.25-.24-.24s-.18.15-.23.26c-1.36,2.97-2.72,5.93-4.08,8.9-.16.34-.15.34.24.34h4.07m-8.18-1.89V7.32q0-.57-.57-.55h-.08c-.1-.01-.2.06-.21.17,0,.01,0,.03,0,.04v16.74c0,.07.02.14.09.17.21.07.45.07.66.01.19-.05.12-.25.12-.39,0-2.72,0-5.44,0-8.16m-9.03,2.92H1.43c-.34,0-.39.06-.25.38.34.88,1.2,1.46,2.15,1.45,1.61.02,3.22.02,4.82,0,.95.02,1.81-.55,2.16-1.43.15-.33.11-.39-.25-.39h-4.29m17.22,1.83c.82,0,1.65.03,2.47,0,.94,0,1.77-.59,2.11-1.46.13-.29.08-.36-.25-.36h-8.66c-.33,0-.37.07-.24.36.34.88,1.19,1.46,2.14,1.46.81.03,1.63,0,2.44,0m-8.61,7.68c1.93,0,3.85,0,5.78,0,.08,0,.18.04.23-.05s-.03-.17-.08-.25c-.26-.39-.7-.62-1.17-.61-3.18,0-6.35,0-9.53,0-.46-.01-.89.21-1.16.58-.06.08-.16.16-.1.27s.17.05.26.05c1.93,0,3.85,0,5.78,0m0-23.96c.06,0,.11,0,.17,0,.28.04.42-.08.48-.36.08-.42.2-.83.29-1.25.09-.38-.06-.78-.39-1-.34-.22-.77-.22-1.11,0-.33.21-.49.62-.4,1,.08.36.16.71.25,1.06.16.62.06.56.71.56m1.5,22c-.42-.97-1.27-.93-2.09-.84-.47.05-.64.54-.93.84h3.02Zm-1.5-20.96c-.45,0-.45,0-.45.43q0,.45.42.45.45,0,.45-.42c0-.45,0-.45-.42-.45"/></g></g></g></svg>