<?xml version="1.0" encoding="UTF-8"?><svg id="Layer_1" xmlns="http://www.w3.org/2000/svg" xmlns:xlink="http://www.w3.org/1999/xlink" viewBox="0 0 25.07 28.82"><defs><style>.cls-1{fill:#3e6dcf;}.cls-2{clip-path:url(#clippath);}.cls-3{fill:none;}</style><clipPath id="clippath"><rect class="cls-3" x="0" y="0" width="25.07" height="28.81"/></clipPath></defs><g id="Group_202"><g class="cls-2"><g id="Group_201"><path id="Path_633" class="cls-1" d="m0,13.8V2.15c-.02-.45.09-.9.33-1.28C.71.29,1.37-.04,2.06,0h14.4c.45-.02.89.16,1.2.49,1.06,1.09,2.13,2.17,3.23,3.23.3.28.47.68.45,1.09,0,3.78,0,7.55-.01,11.33-.05.43.19.84.58,1.02,1.72.95,2.88,2.66,3.12,4.61.4,3.22-1.72,6.21-4.88,6.9-1.66.37-3.4.04-4.81-.91-.2-.13-.44-.2-.68-.2-4.19,0-8.37-.01-12.56.02-1.08.07-2.02-.75-2.09-1.84,0-.08,0-.16,0-.25C.01,21.59,0,17.7,0,13.8m1.31.06v11.59c0,.68.16.84.84.84h10.92c.18,0,.44.09.53-.05.1-.15-.13-.32-.22-.47-1.76-2.97-.78-6.81,2.19-8.58.15-.09.31-.17.46-.25,1.1-.54,2.34-.74,3.56-.58.16.02.42.18.42-.22,0-3.58,0-7.16,0-10.74,0-.24-.09-.3-.31-.29-.54.01-1.07,0-1.61,0-1.01,0-1.83-.82-1.83-1.82,0,0,0,0,0,0,0-.51,0-1.02,0-1.52q0-.4-.4-.4H1.94c-.33,0-.61.25-.62.58,0,.01,0,.03,0,.04,0,.11,0,.21,0,.32v11.53m12.52,8.71c-.01,2.74,2.2,4.96,4.93,4.98,2.74.01,4.96-2.2,4.98-4.93.01-2.72-2.17-4.94-4.89-4.98-2.71-.06-4.95,2.08-5.01,4.78,0,.05,0,.1,0,.15m3.75-20.12c-.03.33-.02.66.02.99.03.16.14.29.3.33.35.06.7.07,1.05.04l-1.37-1.36"/><path id="Path_634" class="cls-1" d="m10.69,10.71h5.56c.35-.03.66.23.7.58.01.11,0,.23-.06.33-.07.18-.22.31-.4.35-.16.04-.33.06-.49.05H5.35c-.1,0-.19,0-.29,0-.36,0-.66-.28-.66-.64,0-.02,0-.04,0-.06.02-.38.27-.6.71-.6h5.59"/><path id="Path_635" class="cls-1" d="m9.42,15.14h-4.27c-.24.02-.47-.07-.62-.25-.22-.29-.17-.7.12-.92.08-.06.18-.11.28-.13.11-.01.21-.02.32-.01h8.34c.11,0,.21,0,.32.01.36.07.59.41.52.77-.05.26-.26.47-.52.52-.11.01-.21.02-.32.01h-4.16"/><path id="Path_636" class="cls-1" d="m7.84,8.88h-2.72c-.46,0-.71-.22-.73-.62-.03-.36.24-.66.6-.69.03,0,.07,0,.1,0,.58-.02,1.15,0,1.72,0,1.19,0,2.38,0,3.57,0,.14,0,.27,0,.41.03.34.05.57.36.53.7,0,.33-.28.59-.62.58,0,0-.02,0-.03,0-.94,0-1.89,0-2.84,0"/><path id="Path_637" class="cls-1" d="m21.29,20.79c0,.14-.04.28-.11.4-.58,1.17-1.16,2.34-1.75,3.51-.12.34-.49.53-.83.41-.13-.04-.24-.12-.32-.23-.6-.59-1.19-1.18-1.78-1.78-.27-.23-.31-.64-.08-.92s.64-.31.92-.08c.03.02.06.05.08.08.33.32.66.64.97.98.18.19.24.14.34-.06.43-.88.87-1.77,1.32-2.64.14-.28.45-.43.76-.35.29.1.49.37.48.68"/></g></g></g></svg>