<?xml version="1.0" encoding="UTF-8"?><svg id="Layer_1" xmlns="http://www.w3.org/2000/svg" xmlns:xlink="http://www.w3.org/1999/xlink" viewBox="0 0 28 23.94"><defs><style>.cls-1{fill:#3e6dcf;}.cls-2{clip-path:url(#clippath);}.cls-3{fill:none;}</style><clipPath id="clippath"><rect class="cls-3" x="0" y="0" width="28" height="23.93"/></clipPath></defs><g class="cls-2"><g id="Group_205"><path id="Path_640" class="cls-1" d="m14,23.93H2.28c-.99.06-1.9-.57-2.19-1.53-.07-.23-.1-.47-.09-.72V5.91c-.06-1.18.85-2.18,2.02-2.24.07,0,.13,0,.2,0,1.98,0,3.97,0,5.95,0q.41,0,.41-.41v-1.07c-.03-1.16.88-2.13,2.04-2.16.01,0,.03,0,.04,0C12.89,0,15.12,0,17.34.02c1.16,0,2.09.95,2.08,2.11,0,0,0,.02,0,.02,0,.4.01.79,0,1.19-.01.26.08.33.33.33,1.99,0,3.98,0,5.98,0,.64-.03,1.26.22,1.7.68.38.4.58.93.58,1.47v15.96c.02,1.18-.93,2.14-2.1,2.16-.05,0-.1,0-.15,0-3.08,0-6.15,0-9.23,0h-2.53m0-18.98H2.28c-.71,0-1.02.31-1.02,1.03v3.6c0,.58.13,1.16.39,1.68.67,1.4,2.11,2.27,3.67,2.2,1.98.01,3.96,0,5.95,0,.24,0,.29-.1.29-.31-.01-.49,0-.99,0-1.48-.03-.32.2-.61.53-.65.04,0,.08,0,.13,0,1.2,0,2.4,0,3.6,0,.33-.04.63.2.66.53,0,.05,0,.09,0,.14,0,.47.02.95,0,1.42-.01.29.09.35.37.35,1.91-.01,3.83,0,5.74,0,.33,0,.66-.02.98-.08,1.87-.32,3.22-1.96,3.2-3.85v-3.45c0-.85-.27-1.13-1.13-1.13h-11.63M1.25,12.93v8.62c0,.81.31,1.13,1.12,1.13h23.26c.79,0,1.11-.32,1.11-1.11v-8.3c.02-.1,0-.2-.03-.29-.03.01-.05.03-.07.05-1.03,1.11-2.49,1.72-4,1.67-1.93,0-3.87,0-5.8,0-.39,0-.39,0-.39.38v1.28c0,.53-.22.76-.75.77-.45.01-.91,0-1.36,0-.68,0-1.35,0-2.03,0-.55,0-.77-.24-.77-.78,0-.43-.02-.85,0-1.28.02-.3-.09-.38-.38-.37-1.95.01-3.91,0-5.86,0-.34,0-.68-.03-1.01-.08-1.18-.2-2.25-.8-3.05-1.69M14,3.67h3.77q.39,0,.4-.41v-.9c0-.79-.31-1.1-1.11-1.1h-6.2c-.5-.07-.95.28-1.02.78-.01.08-.01.16,0,.24,0,.34.02.68,0,1.01-.02.29.08.38.38.38,1.27-.02,2.53,0,3.8,0m1.21,10.39c0-.49,0-.98,0-1.48,0-.21-.05-.32-.29-.31-.62.01-1.23.01-1.85,0-.22,0-.28.09-.28.29,0,1,0,2.01,0,3.01,0,.21.08.29.29.29.61,0,1.22-.01,1.82,0,.25,0,.32-.1.31-.33-.01-.49,0-.98,0-1.48"/></g></g></svg>