<?xml version="1.0" encoding="UTF-8"?><svg id="Layer_1" xmlns="http://www.w3.org/2000/svg" xmlns:xlink="http://www.w3.org/1999/xlink" viewBox="0 0 28.81 29.06"><defs><style>.cls-1{fill:#3e6dcf;}.cls-2{clip-path:url(#clippath);}.cls-3{fill:none;}</style><clipPath id="clippath"><rect class="cls-3" x=".48" y=".06" width="28" height="29"/></clipPath></defs><g id="Group_204"><g class="cls-2"><g id="Group_203"><path id="Path_638" class="cls-1" d="m14.07,0h.68c.22.1.43.23.62.38,1.98,1.49,3.96,2.97,5.94,4.45.07.05.14.16.24.12s.05-.17.05-.26c0-.84,0-1.69,0-2.53-.04-.39.24-.74.63-.78.03,0,.05,0,.08,0,.95,0,1.9,0,2.84,0,.3,0,.57.2.65.49.04.15.06.31.05.47,0,1.82,0,3.64,0,5.46-.02.28.11.55.35.7.52.36,1.01.77,1.54,1.14.55.35.94.91,1.08,1.55v.79c-.04.11-.07.21-.11.32-.35,1.04-1.42,1.65-2.5,1.43-.42-.09-.36,0-.36.32,0,4.19,0,8.38,0,12.57.1,1.03-.58,1.97-1.59,2.19H4.56c-.61-.14-1.13-.56-1.39-1.13-.14-.33-.21-.68-.2-1.04v-12.59c0-.32.07-.4-.36-.32-.87.19-1.77-.18-2.24-.94-.16-.25-.28-.53-.37-.81v-.79c.14-.62.51-1.16,1.04-1.51C5.18,6.59,9.32,3.49,13.45.38c.19-.15.4-.28.62-.38m.33,27.89c3.08,0,6.15,0,9.23,0,.63.06,1.18-.4,1.25-1.02,0-.07,0-.15,0-.22-.02-4.42-.01-8.85,0-13.28.02-.24-.1-.48-.3-.61-3.26-2.44-6.51-4.89-9.76-7.34-.4-.3-.41-.3-.8,0-3.25,2.45-6.5,4.89-9.75,7.34-.21.14-.33.38-.31.63,0,3.33.01,6.66,0,9.99v3.49c0,.48.33.9.8.99.16.03.32.05.47.04h9.17M.96,11.51c-.03.63.42,1.18,1.04,1.29.42.03.83-.11,1.13-.4,3.47-2.62,6.93-5.23,10.4-7.84.48-.49,1.27-.49,1.75,0,0,0,0,0,0,0,1.88,1.41,3.75,2.82,5.62,4.23,1.63,1.23,3.27,2.46,4.9,3.69.31.27.73.38,1.13.28.46-.11.82-.48.9-.95.11-.51-.11-1.04-.56-1.31-4.17-3.12-8.33-6.24-12.49-9.36-.37-.27-.37-.27-.75,0L5.97,7.2c-1.47,1.1-2.94,2.2-4.41,3.3-.36.21-.59.59-.6,1.01m23.9-6.61v-2.28c0-.21-.08-.3-.3-.3-.56,0-1.12.01-1.69,0-.24,0-.31.1-.31.32,0,.97,0,1.93,0,2.9,0,.16.07.31.2.4.61.45,1.22.91,1.82,1.36.06.05.12.14.22.08.07-.05.04-.14.04-.21v-2.28"/><path id="Path_639" class="cls-1" d="m21.2,19.27c0,3.75-3.05,6.79-6.8,6.79-3.75,0-6.79-3.05-6.79-6.8,0-3.75,3.05-6.79,6.8-6.79.09,0,.18,0,.27,0,3.64.16,6.51,3.15,6.52,6.79m-6.79-3.6c.16,0,.32.02.47.05,1.48.27,2.47,1.69,2.2,3.17-.11.59-.4,1.12-.84,1.53-.18.17-.12.21.06.29,1,.4,1.84,1.12,2.4,2.04.16.26.17.26.36.01.95-1.24,1.35-2.81,1.11-4.35-.47-3.18-3.43-5.38-6.61-4.91-3.18.47-5.38,3.43-4.91,6.61.14.96.52,1.87,1.11,2.65.19.25.19.25.36-.02.55-.91,1.37-1.62,2.35-2.02q.3-.13.07-.35c-1.09-1.04-1.13-2.77-.09-3.86.52-.54,1.23-.85,1.98-.85m.07,9.42c1.23-.01,2.43-.42,3.42-1.16.15-.07.21-.25.14-.4-.01-.03-.03-.05-.04-.07-.69-1.34-2.07-2.17-3.58-2.15-1.49-.04-2.88.77-3.57,2.1-.13.14-.12.37.03.5.03.02.06.04.09.06,1.02.74,2.26,1.13,3.52,1.12m1.68-6.7c0-.97-.78-1.75-1.75-1.76-.97.01-1.75.8-1.76,1.76,0,.97.78,1.75,1.74,1.76.01,0,.02,0,.04,0,.95,0,1.73-.76,1.73-1.7,0-.02,0-.04,0-.05"/></g></g></g></svg>