<?xml version="1.0" encoding="UTF-8"?><svg id="Layer_1" xmlns="http://www.w3.org/2000/svg" xmlns:xlink="http://www.w3.org/1999/xlink" viewBox="0 0 28 27.12"><defs><style>.cls-1{fill:#3e6dcf;}.cls-2{clip-path:url(#clippath);}.cls-3{fill:none;}</style><clipPath id="clippath"><rect class="cls-3" width="28" height="27.12"/></clipPath></defs><g id="Group_208"><g class="cls-2"><g id="Group_207"><path id="Path_641" class="cls-1" d="m28,25.48c-.2.44-.58.79-1.04.95-.89.36-1.83.57-2.78.63-1.44.14-2.9.05-4.32-.26-.48-.1-.95-.27-1.38-.5-.53-.26-.85-.81-.82-1.4.01-3.5.02-7,0-10.5-.05-.71.38-1.37,1.06-1.61.83-.35,1.72-.56,2.62-.62.79-.08,1.58-.1,2.37-.05,1.1.02,2.18.24,3.2.63.48.16.88.51,1.1.97v11.76Zm-5.1-10.57c.7-.02,1.4-.08,2.1-.17.6-.08,1.18-.25,1.72-.51.1-.05.25-.1.26-.22.01-.15-.15-.19-.26-.25-.29-.15-.6-.27-.92-.34-1.94-.45-3.96-.45-5.9,0-.37.08-.72.22-1.04.41-.16.1-.16.21,0,.31.19.12.39.21.6.27,1.12.33,2.28.49,3.45.48m-.07,1.87c.43,0,.86-.01,1.28-.06.85-.04,1.68-.22,2.47-.54.45-.2.49-.28.48-.77,0-.2-.07-.2-.23-.14-1.29.47-2.65.68-4.02.62-1.36.05-2.72-.17-3.99-.65-.11-.04-.15-.02-.15.1,0,.54-.09.57.46.83.14.07.28.12.43.17,1.06.3,2.16.45,3.26.44m.01,9.35c1,.01,2-.1,2.97-.34.38-.08.75-.23,1.08-.44.17-.19.22-.46.15-.7-.14-.16-.27.05-.41.06-.02,0-.04,0-.05.02-1.3.4-2.65.57-4.01.51-1.28.02-2.55-.19-3.74-.64-.12-.05-.14,0-.15.11-.06.51,0,.61.47.82.19.09.39.16.59.22,1.02.27,2.06.4,3.11.39m.02-7.49c.46,0,.93-.01,1.39-.06.81-.06,1.6-.24,2.36-.55.43-.2.48-.3.45-.76-.01-.15-.05-.2-.2-.13-.72.29-1.48.47-2.25.53-1.07.12-2.14.13-3.21.02-.86-.06-1.71-.24-2.52-.56-.09-.04-.17-.06-.19.08-.12.31.03.66.33.78.03.01.05.02.08.03.13.06.27.11.41.16,1.09.33,2.23.48,3.37.45m.15,1.87c.47,0,.94-.02,1.41-.07.75-.06,1.49-.24,2.19-.53.43-.19.49-.32.44-.79-.02-.15-.08-.16-.2-.11-1.18.44-2.43.66-3.69.63-1.47.08-2.94-.13-4.32-.63-.1-.04-.18-.05-.18.1,0,.53-.08.54.42.8.12.06.25.11.38.15,1.15.34,2.34.5,3.54.45m-.13,3.76c.37-.02.76-.02,1.15-.06.87-.04,1.74-.23,2.55-.55.45-.2.49-.28.48-.77,0-.17-.05-.21-.21-.14-1.07.41-2.2.62-3.34.62-1.59.12-3.18-.09-4.68-.63-.07-.03-.13-.05-.16.06-.12.33.04.7.37.82,0,0,.01,0,.02,0,.12.06.25.11.38.15,1.12.34,2.28.5,3.44.49m-.39-1.9c.68.03,1.36,0,2.03-.08.72-.06,1.42-.24,2.09-.52.43-.2.47-.28.45-.76,0-.17-.05-.21-.21-.14-1.06.41-2.18.61-3.31.62-1.59.12-3.2-.09-4.7-.63-.1-.04-.16-.03-.16.09,0,.54-.08.57.43.82.12.05.23.1.35.14.98.31,2,.46,3.03.46"/><path id="Path_642" class="cls-1" d="m0,9.12c.14-.17.36-.26.58-.24,7.67,0,15.35,0,23.02,0,.49,0,.63.14.64.64,0,.36,0,.73,0,1.09-.01.31-.16.49-.39.52-.23.02-.43-.14-.46-.37-.04-.25-.04-.51-.02-.76,0-.18-.06-.28-.25-.26-.06,0-.13,0-.19,0H1.25q-.42,0-.42.41c0,3.19,0,6.38,0,9.57,0,.38,0,.38.37.38h14.79c.14,0,.27,0,.41.03.22.05.36.28.31.5-.04.18-.21.32-.39.32H.63c-.24,0-.48,0-.63-.24v-11.58Z"/><path id="Path_643" class="cls-1" d="m2.37,2.81c.5.11,1.05.23,1.6.35l16.94,3.81c.15.02.28.08.39.19.12.13.14.33.04.48-.1.18-.3.26-.49.2-.94-.21-1.88-.42-2.83-.63-5.04-1.13-10.09-2.27-15.13-3.41-.22-.05-.31,0-.36.22-.23,1.09-.48,2.17-.71,3.25-.02.08-.04.16-.06.24-.05.22-.26.37-.49.34-.24-.05-.39-.28-.34-.52,0,0,0-.02,0-.02.08-.4.17-.8.26-1.2.22-.97.43-1.93.65-2.9.04-.26.27-.44.53-.4,0,0,0,0,0,0"/><path id="Path_644" class="cls-1" d="m15.77,14.93c0,2.29-1.86,4.14-4.15,4.14-2.29,0-4.14-1.86-4.14-4.15,0-2.29,1.86-4.14,4.15-4.14,0,0,0,0,0,0,2.26-.02,4.11,1.81,4.13,4.07,0,.03,0,.05,0,.08m-4.16,3.32c1.84,0,3.33-1.48,3.33-3.32s-1.48-3.33-3.32-3.33c-1.84,0-3.33,1.48-3.33,3.32,0,0,0,0,0,0,0,1.83,1.49,3.32,3.32,3.32"/><path id="Path_645" class="cls-1" d="m6.02,19.09h-1.72c-.18.01-.37-.06-.49-.19-.6-.65-1.19-1.31-1.79-1.96-.12-.14-.19-.32-.18-.5,0-1.02,0-2.04,0-3.06,0-.23.09-.45.26-.6.62-.6,1.24-1.2,1.86-1.81.14-.15.33-.23.54-.22h3.36c.25,0,.45.19.45.43,0,0,0,.01,0,.02-.02.24-.22.42-.46.4,0,0,0,0-.01,0-.5,0-1,0-1.5,0h-1.56c-.14,0-.27.04-.37.14-.52.51-1.04,1.02-1.57,1.52-.1.09-.16.23-.15.36,0,.87,0,1.73,0,2.6,0,.13.05.25.14.34.45.49.91.97,1.35,1.47.11.14.29.22.47.21.99,0,1.99,0,2.98,0h.25c.24,0,.43.2.44.43-.01.23-.2.41-.43.41-.28.01-.57,0-.85,0h-1.01"/><path id="Path_646" class="cls-1" d="m19.06,5.23c0,.18-.29.38-.6.26-.51-.2-1.01-.41-1.52-.62-3-1.25-6-2.5-9-3.76-.27-.11-.38-.05-.49.19-.16.36-.34.7-.52,1.05s-.39.46-.64.34-.3-.37-.13-.73c.26-.53.53-1.06.8-1.59.19-.38.36-.44.75-.28,1.63.68,3.26,1.35,4.89,2.03l6,2.5c.28.06.47.32.45.61"/><path id="Path_647" class="cls-1" d="m17.22,11.6h-1.75c-.34,0-.53-.16-.52-.42s.2-.43.53-.43h3.5c.33,0,.52.17.52.43s-.18.42-.52.42h-1.75"/></g></g></g></svg>