<?xml version="1.0" encoding="UTF-8"?><svg id="Layer_1" xmlns="http://www.w3.org/2000/svg" xmlns:xlink="http://www.w3.org/1999/xlink" viewBox="0 0 30 21.97"><defs><style>.cls-1{fill:#3e6dcf;}.cls-2{clip-path:url(#clippath);}.cls-3{fill:none;}</style><clipPath id="clippath"><rect class="cls-3" x="0" y="0" width="30" height="21.96"/></clipPath></defs><g class="cls-2"><g id="Group_209"><path id="Path_648" class="cls-1" d="m30,11.19c-.16.22-.42.33-.69.3h-2.46c-.18-.02-.35.08-.42.23-1.22,1.97-2.72,3.75-4.45,5.28-1.53,1.41-3.16,2.7-4.89,3.86-.51.34-1.04.65-1.56.99-.18.13-.43.15-.63.03-.58-.29-1.13-.63-1.65-1-2.37-1.63-4.58-3.5-6.57-5.58-.91-.95-1.74-1.98-2.47-3.08-.08-.14-.24-.23-.41-.21-1.03,0-2.05,0-3.07,0-.13,0-.25-.01-.38-.04-.23-.04-.39-.27-.35-.5,0-.24.2-.43.43-.42,0,0,0,0,0,0,.32-.02.64,0,.97,0,.6,0,1.19-.01,1.79,0,.27,0,.29-.07.18-.29-.46-.94-.76-1.94-.88-2.98-.25-1.82.25-3.67,1.39-5.11C4.95,1.23,6.55.29,8.32.06c1.25-.15,2.51.02,3.68.48,1.03.36,2.02.84,2.94,1.44.13.09.3.09.42-.02,1.08-.68,2.25-1.22,3.47-1.61,3.56-1.2,7.42.71,8.62,4.27.08.23.14.47.2.71.34,1.58.18,3.22-.44,4.7-.2.53-.22.48.34.49.6,0,1.19,0,1.79,0,.26-.02.51.07.69.26v.41Zm-9.76-1.31c.3-.43.56-.82.82-1.2.35-.51.73-.5,1.05.04s.62,1.06.93,1.59c.05.14.19.23.34.23.78,0,1.56,0,2.34,0,.12.01.23-.06.28-.17.71-1.41.97-3.01.74-4.58-.56-3.14-3.56-5.24-6.7-4.68,0,0,0,0,0,0-1.61.33-3.13.99-4.48,1.93-.37.24-.45.25-.82,0-.78-.52-1.61-.96-2.47-1.32-1.19-.56-2.51-.78-3.82-.66-2.78.41-4.88,2.74-4.99,5.55-.01,1.46.34,2.9,1.04,4.18.07.15.24.23.4.21,1.29,0,2.58,0,3.86,0,.22.03.42-.1.5-.3.66-1.33,1.35-2.64,2.02-3.97.11-.22.25-.41.52-.4s.39.21.48.44c.54,1.4,1.1,2.8,1.64,4.2l1.14,2.92c.06-.2.1-.33.14-.47.82-2.82,1.63-5.64,2.45-8.46.08-.27.21-.47.52-.47.26,0,.49.2.53.46.31,1.03.63,2.05.94,3.08.18.59.37,1.19.57,1.84m-2.03-3.14c-.04.08-.06.12-.07.16-.69,2.37-1.38,4.73-2.07,7.1-.15.52-.3,1.05-.47,1.57-.06.26-.32.42-.58.36-.1-.02-.19-.07-.25-.15-.08-.1-.14-.21-.18-.33-.92-2.34-1.83-4.69-2.75-7.03-.04-.1-.05-.23-.16-.32-.05.1-.11.19-.15.28-.53,1.05-1.08,2.1-1.6,3.16-.13.32-.45.51-.78.48-1.16-.01-2.32,0-3.48,0-.11,0-.27-.06-.33.04s.08.2.15.29c.68.95,1.44,1.85,2.26,2.68,2.19,2.18,4.6,4.12,7.2,5.78.14.11.34.09.47-.03,1.69-1.1,3.32-2.31,4.86-3.61,1.89-1.55,3.55-3.36,4.91-5.39.05-.08.16-.16.11-.25s-.18-.05-.27-.05c-.65,0-1.31,0-1.96,0-.29.02-.56-.13-.69-.39-.21-.39-.44-.76-.67-1.14q-.17-.28-.35-.02c-.28.41-.56.82-.84,1.23-.12.26-.43.37-.69.25-.16-.07-.27-.23-.29-.4-.01-.04-.02-.07-.03-.11l-1.28-4.16"/></g></g></svg>